# xmcd
#
# Track frame offsets: 
#        150
#        22214
#        50492
#        68867
#        89117
#        105482
#        131971
#        145733
#        170016
#        188155
#        206539
#        224233
#
# Disc length: 3515 seconds
#
# Revision: 0
# Processed by: cddbd v1.5.2PL0 Copyright (c) Steve Scherf et al.
# Submitted via: ExactAudioCopy v1.3
#
DISCID=c50db90c
DTITLE=Rebel Syndicate - The Family Album
DYEAR=1900
DGENRE=
TTITLE0=What Southern Folks Do
TTITLE1=Grace Of God
TTITLE2=Postcards From Macon
TTITLE3=Hooker's Prayers
TTITLE4=Crooked Road
TTITLE5=The Lie
TTITLE6=Beer Don't Bitch
TTITLE7=Nobody Cries For Outlaws
TTITLE8=Patron Saint Of The Blues
TTITLE9=Diamonds In The Street
TTITLE10=Tonight
TTITLE11=Southern Rock Revival Song
EXTD=
EXTT0=
EXTT1=
EXTT2=
EXTT3=
EXTT4=
EXTT5=
EXTT6=
EXTT7=
EXTT8=
EXTT9=
EXTT10=
EXTT11=
PLAYORDER=
